# xmcd
#
# Track frame offsets: 
#        150
#        18775
#        44762
#        67312
#        73221
#        88099
#        117461
#        139831
#        172403
#        205210
#        252805
#
# Disc length: 4608 seconds
#
# Revision: 0
# Processed by: cddbd v1.5.2PL0 Copyright (c) Steve Scherf et al.
# Submitted via: ExactAudioCopy v0.99pb3
#
DISCID=b111fe0b
DTITLE=Amy Thompson - Enter In
DYEAR=2006
DGENRE=
TTITLE0=Introduction
TTITLE1=Fall At Your Feet
TTITLE2=Desperation
TTITLE3=Breaking Through
TTITLE4=Enter In
TTITLE5=You Said
TTITLE6=Vision
TTITLE7=Holy Is Our King
TTITLE8=My King
TTITLE9=I See The Lord
TTITLE10=I Will Go For You
EXTD=
EXTT0=
EXTT1=
EXTT2=
EXTT3=
EXTT4=
EXTT5=
EXTT6=
EXTT7=
EXTT8=
EXTT9=
EXTT10=
PLAYORDER=
